<?xml version="1.0" encoding="utf-8"?>
<!-- Uploaded to: SVG Repo, www.svgrepo.com, Generator: SVG Repo Mixer Tools -->
<svg width="800px" height="800px" viewBox="0 0 1024 1024" class="icon"  version="1.1" xmlns="http://www.w3.org/2000/svg"><path d="M597.333333 151.466667v42.666666c155.733333 21.333333 277.333333 155.733333 277.333334 317.866667s-121.6 296.533333-277.333334 317.866667v42.666666c179.2-21.333333 320-174.933333 320-360.533333S776.533333 172.8 597.333333 151.466667z" fill="#81D4FA" /><path d="M298.666667 682.666667H149.333333c-23.466667 0-42.666667-19.2-42.666666-42.666667V384c0-23.466667 19.2-42.666667 42.666666-42.666667h149.333334v341.333334z" fill="#546E7A" /><path d="M554.666667 896L298.666667 682.666667V341.333333L554.666667 128z" fill="#78909C" /><path d="M597.333333 369.066667v44.8c38.4 17.066667 64 53.333333 64 98.133333s-25.6 81.066667-64 98.133333v44.8c61.866667-19.2 106.666667-74.666667 106.666667-142.933333s-44.8-123.733333-106.666667-142.933333z" fill="#03A9F4" /><path d="M597.333333 260.266667v42.666666c98.133333 19.2 170.666667 106.666667 170.666667 209.066667s-72.533333 189.866667-170.666667 209.066667v42.666666c121.6-21.333333 213.333333-125.866667 213.333334-251.733333s-91.733333-232.533333-213.333334-251.733333z" fill="#4FC3F7" /></svg>