<?xml version="1.0" encoding="utf-8"?>
<!-- Uploaded to: SVG Repo, www.svgrepo.com, Generator: SVG Repo Mixer Tools -->
<svg width="800px" height="800px" viewBox="0 0 1024 1024" class="icon"  version="1.1" xmlns="http://www.w3.org/2000/svg"><path d="M298.666667 277.333333H170.666667v-38.4c0-14.933333 10.666667-25.6 25.6-25.6h76.8c14.933333 0 25.6 10.666667 25.6 25.6V277.333333z" fill="#546E7A" /><path d="M853.333333 853.333333H170.666667c-46.933333 0-85.333333-38.4-85.333334-85.333333V469.333333h853.333334v298.666667c0 46.933333-38.4 85.333333-85.333334 85.333333z" fill="#5E35B1" /><path d="M270.933333 469.333333c-8.533333 27.733333-14.933333 55.466667-14.933333 85.333334 0 140.8 115.2 256 256 256s256-115.2 256-256c0-29.866667-6.4-57.6-14.933333-85.333334H270.933333z" fill="#42257A" /><path d="M170.666667 256h682.666666c46.933333 0 85.333333 38.4 85.333334 85.333333v128H85.333333v-128c0-46.933333 38.4-85.333333 85.333334-85.333333z" fill="#78909C" /><path d="M723.2 279.466667H302.933333L375.466667 170.666667c8.533333-12.8 21.333333-19.2 36.266666-19.2h204.8c14.933333 0 27.733333 6.4 36.266667 19.2l70.4 108.8z" fill="#78909C" /><path d="M753.066667 469.333333c-34.133333-100.266667-130.133333-170.666667-241.066667-170.666666s-206.933333 70.4-241.066667 170.666666h482.133334z" fill="#455A64" /><path d="M512 554.666667m-192 0a192 192 0 1 0 384 0 192 192 0 1 0-384 0Z" fill="#B388FF" /><path d="M618.666667 490.666667c-25.6-29.866667-64-46.933333-102.4-46.933334-38.4 0-76.8 17.066667-102.4 46.933334-10.666667 10.666667-8.533333 27.733333 2.133333 38.4s27.733333 8.533333 38.4-2.133334c32-36.266667 91.733333-36.266667 123.733333 0 6.4 6.4 12.8 8.533333 21.333334 8.533334 6.4 0 12.8-2.133333 19.2-6.4 8.533333-8.533333 10.666667-27.733333 0-38.4z" fill="#C7A7FF" /><path d="M768 320h106.666667v85.333333h-106.666667z" fill="#DBE2E5" /></svg>