<?xml version="1.0" standalone="no"?>
<svg xmlns="http://www.w3.org/2000/svg" width="500" height="500"><defs><clipPath id="clip-path-dot-color"><circle cx="26" cy="194" r="7" transform="rotate(0,26,194)"/><circle cx="26" cy="236" r="7" transform="rotate(0,26,236)"/><circle cx="26" cy="250" r="7" transform="rotate(0,26,250)"/><circle cx="26" cy="278" r="7" transform="rotate(0,26,278)"/><circle cx="26" cy="320" r="7" transform="rotate(0,26,320)"/><circle cx="26" cy="348" r="7" transform="rotate(0,26,348)"/><circle cx="40" cy="180" r="7" transform="rotate(0,40,180)"/><circle cx="40" cy="222" r="7" transform="rotate(0,40,222)"/><circle cx="40" cy="236" r="7" transform="rotate(0,40,236)"/><circle cx="40" cy="278" r="7" transform="rotate(0,40,278)"/><circle cx="40" cy="292" r="7" transform="rotate(0,40,292)"/><circle cx="40" cy="306" r="7" transform="rotate(0,40,306)"/><circle cx="40" cy="320" r="7" transform="rotate(0,40,320)"/><circle cx="40" cy="334" r="7" transform="rotate(0,40,334)"/><circle cx="54" cy="138" r="7" transform="rotate(0,54,138)"/><circle cx="54" cy="166" r="7" transform="rotate(0,54,166)"/><circle cx="54" cy="180" r="7" transform="rotate(0,54,180)"/><circle cx="54" cy="194" r="7" transform="rotate(0,54,194)"/><circle cx="54" cy="208" r="7" transform="rotate(0,54,208)"/><circle cx="54" cy="264" r="7" transform="rotate(0,54,264)"/><circle cx="54" cy="278" r="7" transform="rotate(0,54,278)"/><circle cx="54" cy="292" r="7" transform="rotate(0,54,292)"/><circle cx="54" cy="306" r="7" transform="rotate(0,54,306)"/><circle cx="54" cy="320" r="7" transform="rotate(0,54,320)"/><circle cx="68" cy="152" r="7" transform="rotate(0,68,152)"/><circle cx="68" cy="180" r="7" transform="rotate(0,68,180)"/><circle cx="68" cy="194" r="7" transform="rotate(0,68,194)"/><circle cx="68" cy="222" r="7" transform="rotate(0,68,222)"/><circle cx="68" cy="250" r="7" transform="rotate(0,68,250)"/><circle cx="68" cy="264" r="7" transform="rotate(0,68,264)"/><circle cx="68" cy="320" r="7" transform="rotate(0,68,320)"/><circle cx="68" cy="334" r="7" transform="rotate(0,68,334)"/><circle cx="68" cy="348" r="7" transform="rotate(0,68,348)"/><circle cx="82" cy="138" r="7" transform="rotate(0,82,138)"/><circle cx="82" cy="166" r="7" transform="rotate(0,82,166)"/><circle cx="82" cy="264" r="7" transform="rotate(0,82,264)"/><circle cx="82" cy="292" r="7" transform="rotate(0,82,292)"/><circle cx="82" cy="320" r="7" transform="rotate(0,82,320)"/><circle cx="82" cy="348" r="7" transform="rotate(0,82,348)"/><circle cx="82" cy="362" r="7" transform="rotate(0,82,362)"/><circle cx="96" cy="138" r="7" transform="rotate(0,96,138)"/><circle cx="96" cy="166" r="7" transform="rotate(0,96,166)"/><circle cx="96" cy="180" r="7" transform="rotate(0,96,180)"/><circle cx="96" cy="194" r="7" transform="rotate(0,96,194)"/><circle cx="96" cy="236" r="7" transform="rotate(0,96,236)"/><circle cx="96" cy="278" r="7" transform="rotate(0,96,278)"/><circle cx="96" cy="306" r="7" transform="rotate(0,96,306)"/><circle cx="110" cy="138" r="7" transform="rotate(0,110,138)"/><circle cx="110" cy="166" r="7" transform="rotate(0,110,166)"/><circle cx="110" cy="194" r="7" transform="rotate(0,110,194)"/><circle cx="110" cy="222" r="7" transform="rotate(0,110,222)"/><circle cx="110" cy="250" r="7" transform="rotate(0,110,250)"/><circle cx="110" cy="278" r="7" transform="rotate(0,110,278)"/><circle cx="110" cy="306" r="7" transform="rotate(0,110,306)"/><circle cx="110" cy="334" r="7" transform="rotate(0,110,334)"/><circle cx="110" cy="362" r="7" transform="rotate(0,110,362)"/><circle cx="124" cy="180" r="7" transform="rotate(0,124,180)"/><circle cx="124" cy="208" r="7" transform="rotate(0,124,208)"/><circle cx="124" cy="222" r="7" transform="rotate(0,124,222)"/><circle cx="124" cy="264" r="7" transform="rotate(0,124,264)"/><circle cx="124" cy="278" r="7" transform="rotate(0,124,278)"/><circle cx="124" cy="292" r="7" transform="rotate(0,124,292)"/><circle cx="124" cy="306" r="7" transform="rotate(0,124,306)"/><circle cx="124" cy="320" r="7" transform="rotate(0,124,320)"/><circle cx="124" cy="362" r="7" transform="rotate(0,124,362)"/><circle cx="138" cy="40" r="7" transform="rotate(0,138,40)"/><circle cx="138" cy="82" r="7" transform="rotate(0,138,82)"/><circle cx="138" cy="110" r="7" transform="rotate(0,138,110)"/><circle cx="138" cy="138" r="7" transform="rotate(0,138,138)"/><circle cx="138" cy="152" r="7" transform="rotate(0,138,152)"/><circle cx="138" cy="166" r="7" transform="rotate(0,138,166)"/><circle cx="138" cy="180" r="7" transform="rotate(0,138,180)"/><circle cx="138" cy="222" r="7" transform="rotate(0,138,222)"/><circle cx="138" cy="236" r="7" transform="rotate(0,138,236)"/><circle cx="138" cy="264" r="7" transform="rotate(0,138,264)"/><circle cx="138" cy="306" r="7" transform="rotate(0,138,306)"/><circle cx="138" cy="320" r="7" transform="rotate(0,138,320)"/><circle cx="138" cy="334" r="7" transform="rotate(0,138,334)"/><circle cx="138" cy="348" r="7" transform="rotate(0,138,348)"/><circle cx="138" cy="376" r="7" transform="rotate(0,138,376)"/><circle cx="138" cy="404" r="7" transform="rotate(0,138,404)"/><circle cx="138" cy="418" r="7" transform="rotate(0,138,418)"/><circle cx="138" cy="446" r="7" transform="rotate(0,138,446)"/><circle cx="152" cy="26" r="7" transform="rotate(0,152,26)"/><circle cx="152" cy="54" r="7" transform="rotate(0,152,54)"/><circle cx="152" cy="68" r="7" transform="rotate(0,152,68)"/><circle cx="152" cy="96" r="7" transform="rotate(0,152,96)"/><circle cx="152" cy="124" r="7" transform="rotate(0,152,124)"/><circle cx="152" cy="138" r="7" transform="rotate(0,152,138)"/><circle cx="152" cy="152" r="7" transform="rotate(0,152,152)"/><circle cx="152" cy="180" r="7" transform="rotate(0,152,180)"/><circle cx="152" cy="208" r="7" transform="rotate(0,152,208)"/><circle cx="152" cy="250" r="7" transform="rotate(0,152,250)"/><circle cx="152" cy="264" r="7" transform="rotate(0,152,264)"/><circle cx="152" cy="278" r="7" transform="rotate(0,152,278)"/><circle cx="152" cy="320" r="7" transform="rotate(0,152,320)"/><circle cx="152" cy="348" r="7" transform="rotate(0,152,348)"/><circle cx="152" cy="376" r="7" transform="rotate(0,152,376)"/><circle cx="152" cy="432" r="7" transform="rotate(0,152,432)"/><circle cx="152" cy="446" r="7" transform="rotate(0,152,446)"/><circle cx="166" cy="26" r="7" transform="rotate(0,166,26)"/><circle cx="166" cy="54" r="7" transform="rotate(0,166,54)"/><circle cx="166" cy="82" r="7" transform="rotate(0,166,82)"/><circle cx="166" cy="96" r="7" transform="rotate(0,166,96)"/><circle cx="166" cy="110" r="7" transform="rotate(0,166,110)"/><circle cx="166" cy="124" r="7" transform="rotate(0,166,124)"/><circle cx="166" cy="138" r="7" transform="rotate(0,166,138)"/><circle cx="166" cy="166" r="7" transform="rotate(0,166,166)"/><circle cx="166" cy="180" r="7" transform="rotate(0,166,180)"/><circle cx="166" cy="194" r="7" transform="rotate(0,166,194)"/><circle cx="166" cy="250" r="7" transform="rotate(0,166,250)"/><circle cx="166" cy="278" r="7" transform="rotate(0,166,278)"/><circle cx="166" cy="348" r="7" transform="rotate(0,166,348)"/><circle cx="166" cy="362" r="7" transform="rotate(0,166,362)"/><circle cx="166" cy="390" r="7" transform="rotate(0,166,390)"/><circle cx="166" cy="432" r="7" transform="rotate(0,166,432)"/><circle cx="166" cy="460" r="7" transform="rotate(0,166,460)"/><circle cx="180" cy="40" r="7" transform="rotate(0,180,40)"/><circle cx="180" cy="68" r="7" transform="rotate(0,180,68)"/><circle cx="180" cy="152" r="7" transform="rotate(0,180,152)"/><circle cx="180" cy="194" r="7" transform="rotate(0,180,194)"/><circle cx="180" cy="208" r="7" transform="rotate(0,180,208)"/><circle cx="180" cy="222" r="7" transform="rotate(0,180,222)"/><circle cx="180" cy="292" r="7" transform="rotate(0,180,292)"/><circle cx="180" cy="306" r="7" transform="rotate(0,180,306)"/><circle cx="180" cy="334" r="7" transform="rotate(0,180,334)"/><circle cx="180" cy="348" r="7" transform="rotate(0,180,348)"/><circle cx="194" cy="40" r="7" transform="rotate(0,194,40)"/><circle cx="194" cy="68" r="7" transform="rotate(0,194,68)"/><circle cx="194" cy="82" r="7" transform="rotate(0,194,82)"/><circle cx="194" cy="96" r="7" transform="rotate(0,194,96)"/><circle cx="194" cy="110" r="7" transform="rotate(0,194,110)"/><circle cx="194" cy="124" r="7" transform="rotate(0,194,124)"/><circle cx="194" cy="152" r="7" transform="rotate(0,194,152)"/><circle cx="194" cy="166" r="7" transform="rotate(0,194,166)"/><circle cx="194" cy="180" r="7" transform="rotate(0,194,180)"/><circle cx="194" cy="208" r="7" transform="rotate(0,194,208)"/><circle cx="194" cy="334" r="7" transform="rotate(0,194,334)"/><circle cx="194" cy="348" r="7" transform="rotate(0,194,348)"/><circle cx="194" cy="362" r="7" transform="rotate(0,194,362)"/><circle cx="194" cy="390" r="7" transform="rotate(0,194,390)"/><circle cx="194" cy="418" r="7" transform="rotate(0,194,418)"/><circle cx="194" cy="432" r="7" transform="rotate(0,194,432)"/><circle cx="194" cy="474" r="7" transform="rotate(0,194,474)"/><circle cx="208" cy="82" r="7" transform="rotate(0,208,82)"/><circle cx="208" cy="138" r="7" transform="rotate(0,208,138)"/><circle cx="208" cy="152" r="7" transform="rotate(0,208,152)"/><circle cx="208" cy="166" r="7" transform="rotate(0,208,166)"/><circle cx="208" cy="194" r="7" transform="rotate(0,208,194)"/><circle cx="208" cy="222" r="7" transform="rotate(0,208,222)"/><circle cx="208" cy="250" r="7" transform="rotate(0,208,250)"/><circle cx="208" cy="278" r="7" transform="rotate(0,208,278)"/><circle cx="208" cy="292" r="7" transform="rotate(0,208,292)"/><circle cx="208" cy="306" r="7" transform="rotate(0,208,306)"/><circle cx="208" cy="320" r="7" transform="rotate(0,208,320)"/><circle cx="208" cy="348" r="7" transform="rotate(0,208,348)"/><circle cx="208" cy="404" r="7" transform="rotate(0,208,404)"/><circle cx="222" cy="40" r="7" transform="rotate(0,222,40)"/><circle cx="222" cy="54" r="7" transform="rotate(0,222,54)"/><circle cx="222" cy="68" r="7" transform="rotate(0,222,68)"/><circle cx="222" cy="82" r="7" transform="rotate(0,222,82)"/><circle cx="222" cy="110" r="7" transform="rotate(0,222,110)"/><circle cx="222" cy="124" r="7" transform="rotate(0,222,124)"/><circle cx="222" cy="152" r="7" transform="rotate(0,222,152)"/><circle cx="222" cy="208" r="7" transform="rotate(0,222,208)"/><circle cx="222" cy="278" r="7" transform="rotate(0,222,278)"/><circle cx="222" cy="306" r="7" transform="rotate(0,222,306)"/><circle cx="222" cy="348" r="7" transform="rotate(0,222,348)"/><circle cx="222" cy="362" r="7" transform="rotate(0,222,362)"/><circle cx="222" cy="376" r="7" transform="rotate(0,222,376)"/><circle cx="222" cy="390" r="7" transform="rotate(0,222,390)"/><circle cx="222" cy="404" r="7" transform="rotate(0,222,404)"/><circle cx="222" cy="418" r="7" transform="rotate(0,222,418)"/><circle cx="222" cy="460" r="7" transform="rotate(0,222,460)"/><circle cx="236" cy="40" r="7" transform="rotate(0,236,40)"/><circle cx="236" cy="54" r="7" transform="rotate(0,236,54)"/><circle cx="236" cy="68" r="7" transform="rotate(0,236,68)"/><circle cx="236" cy="82" r="7" transform="rotate(0,236,82)"/><circle cx="236" cy="208" r="7" transform="rotate(0,236,208)"/><circle cx="236" cy="222" r="7" transform="rotate(0,236,222)"/><circle cx="236" cy="264" r="7" transform="rotate(0,236,264)"/><circle cx="236" cy="320" r="7" transform="rotate(0,236,320)"/><circle cx="236" cy="348" r="7" transform="rotate(0,236,348)"/><circle cx="236" cy="376" r="7" transform="rotate(0,236,376)"/><circle cx="236" cy="390" r="7" transform="rotate(0,236,390)"/><circle cx="236" cy="418" r="7" transform="rotate(0,236,418)"/><circle cx="236" cy="432" r="7" transform="rotate(0,236,432)"/><circle cx="250" cy="26" r="7" transform="rotate(0,250,26)"/><circle cx="250" cy="54" r="7" transform="rotate(0,250,54)"/><circle cx="250" cy="68" r="7" transform="rotate(0,250,68)"/><circle cx="250" cy="82" r="7" transform="rotate(0,250,82)"/><circle cx="250" cy="110" r="7" transform="rotate(0,250,110)"/><circle cx="250" cy="124" r="7" transform="rotate(0,250,124)"/><circle cx="250" cy="152" r="7" transform="rotate(0,250,152)"/><circle cx="250" cy="166" r="7" transform="rotate(0,250,166)"/><circle cx="250" cy="194" r="7" transform="rotate(0,250,194)"/><circle cx="250" cy="236" r="7" transform="rotate(0,250,236)"/><circle cx="250" cy="250" r="7" transform="rotate(0,250,250)"/><circle cx="250" cy="264" r="7" transform="rotate(0,250,264)"/><circle cx="250" cy="292" r="7" transform="rotate(0,250,292)"/><circle cx="250" cy="306" r="7" transform="rotate(0,250,306)"/><circle cx="250" cy="320" r="7" transform="rotate(0,250,320)"/><circle cx="250" cy="334" r="7" transform="rotate(0,250,334)"/><circle cx="250" cy="348" r="7" transform="rotate(0,250,348)"/><circle cx="250" cy="362" r="7" transform="rotate(0,250,362)"/><circle cx="250" cy="390" r="7" transform="rotate(0,250,390)"/><circle cx="250" cy="418" r="7" transform="rotate(0,250,418)"/><circle cx="250" cy="460" r="7" transform="rotate(0,250,460)"/><circle cx="264" cy="26" r="7" transform="rotate(0,264,26)"/><circle cx="264" cy="68" r="7" transform="rotate(0,264,68)"/><circle cx="264" cy="82" r="7" transform="rotate(0,264,82)"/><circle cx="264" cy="138" r="7" transform="rotate(0,264,138)"/><circle cx="264" cy="152" r="7" transform="rotate(0,264,152)"/><circle cx="264" cy="180" r="7" transform="rotate(0,264,180)"/><circle cx="264" cy="194" r="7" transform="rotate(0,264,194)"/><circle cx="264" cy="222" r="7" transform="rotate(0,264,222)"/><circle cx="264" cy="250" r="7" transform="rotate(0,264,250)"/><circle cx="264" cy="348" r="7" transform="rotate(0,264,348)"/><circle cx="264" cy="376" r="7" transform="rotate(0,264,376)"/><circle cx="264" cy="432" r="7" transform="rotate(0,264,432)"/><circle cx="264" cy="446" r="7" transform="rotate(0,264,446)"/><circle cx="278" cy="26" r="7" transform="rotate(0,278,26)"/><circle cx="278" cy="82" r="7" transform="rotate(0,278,82)"/><circle cx="278" cy="110" r="7" transform="rotate(0,278,110)"/><circle cx="278" cy="124" r="7" transform="rotate(0,278,124)"/><circle cx="278" cy="138" r="7" transform="rotate(0,278,138)"/><circle cx="278" cy="236" r="7" transform="rotate(0,278,236)"/><circle cx="278" cy="250" r="7" transform="rotate(0,278,250)"/><circle cx="278" cy="264" r="7" transform="rotate(0,278,264)"/><circle cx="278" cy="278" r="7" transform="rotate(0,278,278)"/><circle cx="278" cy="306" r="7" transform="rotate(0,278,306)"/><circle cx="278" cy="320" r="7" transform="rotate(0,278,320)"/><circle cx="278" cy="334" r="7" transform="rotate(0,278,334)"/><circle cx="278" cy="348" r="7" transform="rotate(0,278,348)"/><circle cx="278" cy="376" r="7" transform="rotate(0,278,376)"/><circle cx="278" cy="404" r="7" transform="rotate(0,278,404)"/><circle cx="278" cy="432" r="7" transform="rotate(0,278,432)"/><circle cx="278" cy="460" r="7" transform="rotate(0,278,460)"/><circle cx="292" cy="54" r="7" transform="rotate(0,292,54)"/><circle cx="292" cy="68" r="7" transform="rotate(0,292,68)"/><circle cx="292" cy="82" r="7" transform="rotate(0,292,82)"/><circle cx="292" cy="96" r="7" transform="rotate(0,292,96)"/><circle cx="292" cy="194" r="7" transform="rotate(0,292,194)"/><circle cx="292" cy="222" r="7" transform="rotate(0,292,222)"/><circle cx="292" cy="236" r="7" transform="rotate(0,292,236)"/><circle cx="292" cy="250" r="7" transform="rotate(0,292,250)"/><circle cx="292" cy="278" r="7" transform="rotate(0,292,278)"/><circle cx="292" cy="320" r="7" transform="rotate(0,292,320)"/><circle cx="292" cy="362" r="7" transform="rotate(0,292,362)"/><circle cx="292" cy="376" r="7" transform="rotate(0,292,376)"/><circle cx="292" cy="404" r="7" transform="rotate(0,292,404)"/><circle cx="292" cy="460" r="7" transform="rotate(0,292,460)"/><circle cx="306" cy="54" r="7" transform="rotate(0,306,54)"/><circle cx="306" cy="82" r="7" transform="rotate(0,306,82)"/><circle cx="306" cy="110" r="7" transform="rotate(0,306,110)"/><circle cx="306" cy="138" r="7" transform="rotate(0,306,138)"/><circle cx="306" cy="194" r="7" transform="rotate(0,306,194)"/><circle cx="306" cy="208" r="7" transform="rotate(0,306,208)"/><circle cx="306" cy="222" r="7" transform="rotate(0,306,222)"/><circle cx="306" cy="236" r="7" transform="rotate(0,306,236)"/><circle cx="306" cy="250" r="7" transform="rotate(0,306,250)"/><circle cx="306" cy="278" r="7" transform="rotate(0,306,278)"/><circle cx="306" cy="306" r="7" transform="rotate(0,306,306)"/><circle cx="306" cy="362" r="7" transform="rotate(0,306,362)"/><circle cx="306" cy="390" r="7" transform="rotate(0,306,390)"/><circle cx="306" cy="404" r="7" transform="rotate(0,306,404)"/><circle cx="306" cy="418" r="7" transform="rotate(0,306,418)"/><circle cx="306" cy="432" r="7" transform="rotate(0,306,432)"/><circle cx="306" cy="460" r="7" transform="rotate(0,306,460)"/><circle cx="320" cy="26" r="7" transform="rotate(0,320,26)"/><circle cx="320" cy="54" r="7" transform="rotate(0,320,54)"/><circle cx="320" cy="124" r="7" transform="rotate(0,320,124)"/><circle cx="320" cy="236" r="7" transform="rotate(0,320,236)"/><circle cx="320" cy="292" r="7" transform="rotate(0,320,292)"/><circle cx="320" cy="320" r="7" transform="rotate(0,320,320)"/><circle cx="320" cy="334" r="7" transform="rotate(0,320,334)"/><circle cx="320" cy="348" r="7" transform="rotate(0,320,348)"/><circle cx="320" cy="376" r="7" transform="rotate(0,320,376)"/><circle cx="320" cy="404" r="7" transform="rotate(0,320,404)"/><circle cx="320" cy="432" r="7" transform="rotate(0,320,432)"/><circle cx="320" cy="460" r="7" transform="rotate(0,320,460)"/><circle cx="334" cy="54" r="7" transform="rotate(0,334,54)"/><circle cx="334" cy="110" r="7" transform="rotate(0,334,110)"/><circle cx="334" cy="152" r="7" transform="rotate(0,334,152)"/><circle cx="334" cy="180" r="7" transform="rotate(0,334,180)"/><circle cx="334" cy="264" r="7" transform="rotate(0,334,264)"/><circle cx="334" cy="278" r="7" transform="rotate(0,334,278)"/><circle cx="334" cy="292" r="7" transform="rotate(0,334,292)"/><circle cx="334" cy="348" r="7" transform="rotate(0,334,348)"/><circle cx="334" cy="376" r="7" transform="rotate(0,334,376)"/><circle cx="334" cy="418" r="7" transform="rotate(0,334,418)"/><circle cx="334" cy="432" r="7" transform="rotate(0,334,432)"/><circle cx="334" cy="446" r="7" transform="rotate(0,334,446)"/><circle cx="334" cy="460" r="7" transform="rotate(0,334,460)"/><circle cx="348" cy="68" r="7" transform="rotate(0,348,68)"/><circle cx="348" cy="96" r="7" transform="rotate(0,348,96)"/><circle cx="348" cy="152" r="7" transform="rotate(0,348,152)"/><circle cx="348" cy="166" r="7" transform="rotate(0,348,166)"/><circle cx="348" cy="180" r="7" transform="rotate(0,348,180)"/><circle cx="348" cy="194" r="7" transform="rotate(0,348,194)"/><circle cx="348" cy="236" r="7" transform="rotate(0,348,236)"/><circle cx="348" cy="250" r="7" transform="rotate(0,348,250)"/><circle cx="348" cy="278" r="7" transform="rotate(0,348,278)"/><circle cx="348" cy="292" r="7" transform="rotate(0,348,292)"/><circle cx="348" cy="306" r="7" transform="rotate(0,348,306)"/><circle cx="348" cy="320" r="7" transform="rotate(0,348,320)"/><circle cx="348" cy="334" r="7" transform="rotate(0,348,334)"/><circle cx="348" cy="362" r="7" transform="rotate(0,348,362)"/><circle cx="348" cy="404" r="7" transform="rotate(0,348,404)"/><circle cx="348" cy="460" r="7" transform="rotate(0,348,460)"/><circle cx="362" cy="26" r="7" transform="rotate(0,362,26)"/><circle cx="362" cy="40" r="7" transform="rotate(0,362,40)"/><circle cx="362" cy="68" r="7" transform="rotate(0,362,68)"/><circle cx="362" cy="82" r="7" transform="rotate(0,362,82)"/><circle cx="362" cy="110" r="7" transform="rotate(0,362,110)"/><circle cx="362" cy="124" r="7" transform="rotate(0,362,124)"/><circle cx="362" cy="152" r="7" transform="rotate(0,362,152)"/><circle cx="362" cy="166" r="7" transform="rotate(0,362,166)"/><circle cx="362" cy="180" r="7" transform="rotate(0,362,180)"/><circle cx="362" cy="208" r="7" transform="rotate(0,362,208)"/><circle cx="362" cy="236" r="7" transform="rotate(0,362,236)"/><circle cx="362" cy="250" r="7" transform="rotate(0,362,250)"/><circle cx="362" cy="306" r="7" transform="rotate(0,362,306)"/><circle cx="362" cy="320" r="7" transform="rotate(0,362,320)"/><circle cx="362" cy="334" r="7" transform="rotate(0,362,334)"/><circle cx="362" cy="348" r="7" transform="rotate(0,362,348)"/><circle cx="362" cy="362" r="7" transform="rotate(0,362,362)"/><circle cx="362" cy="376" r="7" transform="rotate(0,362,376)"/><circle cx="362" cy="390" r="7" transform="rotate(0,362,390)"/><circle cx="362" cy="404" r="7" transform="rotate(0,362,404)"/><circle cx="362" cy="418" r="7" transform="rotate(0,362,418)"/><circle cx="362" cy="474" r="7" transform="rotate(0,362,474)"/><circle cx="376" cy="138" r="7" transform="rotate(0,376,138)"/><circle cx="376" cy="152" r="7" transform="rotate(0,376,152)"/><circle cx="376" cy="180" r="7" transform="rotate(0,376,180)"/><circle cx="376" cy="194" r="7" transform="rotate(0,376,194)"/><circle cx="376" cy="208" r="7" transform="rotate(0,376,208)"/><circle cx="376" cy="222" r="7" transform="rotate(0,376,222)"/><circle cx="376" cy="264" r="7" transform="rotate(0,376,264)"/><circle cx="376" cy="278" r="7" transform="rotate(0,376,278)"/><circle cx="376" cy="320" r="7" transform="rotate(0,376,320)"/><circle cx="376" cy="348" r="7" transform="rotate(0,376,348)"/><circle cx="376" cy="362" r="7" transform="rotate(0,376,362)"/><circle cx="376" cy="418" r="7" transform="rotate(0,376,418)"/><circle cx="376" cy="446" r="7" transform="rotate(0,376,446)"/><circle cx="376" cy="460" r="7" transform="rotate(0,376,460)"/><circle cx="390" cy="152" r="7" transform="rotate(0,390,152)"/><circle cx="390" cy="166" r="7" transform="rotate(0,390,166)"/><circle cx="390" cy="180" r="7" transform="rotate(0,390,180)"/><circle cx="390" cy="236" r="7" transform="rotate(0,390,236)"/><circle cx="390" cy="250" r="7" transform="rotate(0,390,250)"/><circle cx="390" cy="306" r="7" transform="rotate(0,390,306)"/><circle cx="390" cy="362" r="7" transform="rotate(0,390,362)"/><circle cx="390" cy="390" r="7" transform="rotate(0,390,390)"/><circle cx="390" cy="418" r="7" transform="rotate(0,390,418)"/><circle cx="390" cy="432" r="7" transform="rotate(0,390,432)"/><circle cx="390" cy="460" r="7" transform="rotate(0,390,460)"/><circle cx="404" cy="152" r="7" transform="rotate(0,404,152)"/><circle cx="404" cy="180" r="7" transform="rotate(0,404,180)"/><circle cx="404" cy="264" r="7" transform="rotate(0,404,264)"/><circle cx="404" cy="334" r="7" transform="rotate(0,404,334)"/><circle cx="404" cy="362" r="7" transform="rotate(0,404,362)"/><circle cx="404" cy="418" r="7" transform="rotate(0,404,418)"/><circle cx="404" cy="474" r="7" transform="rotate(0,404,474)"/><circle cx="418" cy="138" r="7" transform="rotate(0,418,138)"/><circle cx="418" cy="152" r="7" transform="rotate(0,418,152)"/><circle cx="418" cy="180" r="7" transform="rotate(0,418,180)"/><circle cx="418" cy="208" r="7" transform="rotate(0,418,208)"/><circle cx="418" cy="222" r="7" transform="rotate(0,418,222)"/><circle cx="418" cy="250" r="7" transform="rotate(0,418,250)"/><circle cx="418" cy="334" r="7" transform="rotate(0,418,334)"/><circle cx="418" cy="362" r="7" transform="rotate(0,418,362)"/><circle cx="418" cy="376" r="7" transform="rotate(0,418,376)"/><circle cx="418" cy="390" r="7" transform="rotate(0,418,390)"/><circle cx="418" cy="404" r="7" transform="rotate(0,418,404)"/><circle cx="418" cy="418" r="7" transform="rotate(0,418,418)"/><circle cx="418" cy="432" r="7" transform="rotate(0,418,432)"/><circle cx="432" cy="166" r="7" transform="rotate(0,432,166)"/><circle cx="432" cy="180" r="7" transform="rotate(0,432,180)"/><circle cx="432" cy="208" r="7" transform="rotate(0,432,208)"/><circle cx="432" cy="264" r="7" transform="rotate(0,432,264)"/><circle cx="432" cy="278" r="7" transform="rotate(0,432,278)"/><circle cx="432" cy="292" r="7" transform="rotate(0,432,292)"/><circle cx="432" cy="306" r="7" transform="rotate(0,432,306)"/><circle cx="432" cy="348" r="7" transform="rotate(0,432,348)"/><circle cx="432" cy="362" r="7" transform="rotate(0,432,362)"/><circle cx="432" cy="390" r="7" transform="rotate(0,432,390)"/><circle cx="432" cy="404" r="7" transform="rotate(0,432,404)"/><circle cx="432" cy="418" r="7" transform="rotate(0,432,418)"/><circle cx="432" cy="432" r="7" transform="rotate(0,432,432)"/><circle cx="432" cy="446" r="7" transform="rotate(0,432,446)"/><circle cx="432" cy="460" r="7" transform="rotate(0,432,460)"/><circle cx="446" cy="152" r="7" transform="rotate(0,446,152)"/><circle cx="446" cy="166" r="7" transform="rotate(0,446,166)"/><circle cx="446" cy="194" r="7" transform="rotate(0,446,194)"/><circle cx="446" cy="222" r="7" transform="rotate(0,446,222)"/><circle cx="446" cy="236" r="7" transform="rotate(0,446,236)"/><circle cx="446" cy="250" r="7" transform="rotate(0,446,250)"/><circle cx="446" cy="306" r="7" transform="rotate(0,446,306)"/><circle cx="446" cy="334" r="7" transform="rotate(0,446,334)"/><circle cx="446" cy="348" r="7" transform="rotate(0,446,348)"/><circle cx="446" cy="362" r="7" transform="rotate(0,446,362)"/><circle cx="446" cy="390" r="7" transform="rotate(0,446,390)"/><circle cx="446" cy="404" r="7" transform="rotate(0,446,404)"/><circle cx="446" cy="418" r="7" transform="rotate(0,446,418)"/><circle cx="446" cy="446" r="7" transform="rotate(0,446,446)"/><circle cx="460" cy="138" r="7" transform="rotate(0,460,138)"/><circle cx="460" cy="180" r="7" transform="rotate(0,460,180)"/><circle cx="460" cy="194" r="7" transform="rotate(0,460,194)"/><circle cx="460" cy="222" r="7" transform="rotate(0,460,222)"/><circle cx="460" cy="236" r="7" transform="rotate(0,460,236)"/><circle cx="460" cy="264" r="7" transform="rotate(0,460,264)"/><circle cx="460" cy="278" r="7" transform="rotate(0,460,278)"/><circle cx="460" cy="320" r="7" transform="rotate(0,460,320)"/><circle cx="460" cy="334" r="7" transform="rotate(0,460,334)"/><circle cx="460" cy="348" r="7" transform="rotate(0,460,348)"/><circle cx="460" cy="362" r="7" transform="rotate(0,460,362)"/><circle cx="474" cy="166" r="7" transform="rotate(0,474,166)"/><circle cx="474" cy="194" r="7" transform="rotate(0,474,194)"/><circle cx="474" cy="264" r="7" transform="rotate(0,474,264)"/><circle cx="474" cy="278" r="7" transform="rotate(0,474,278)"/><circle cx="474" cy="292" r="7" transform="rotate(0,474,292)"/><circle cx="474" cy="320" r="7" transform="rotate(0,474,320)"/><circle cx="474" cy="334" r="7" transform="rotate(0,474,334)"/><circle cx="474" cy="362" r="7" transform="rotate(0,474,362)"/><circle cx="474" cy="376" r="7" transform="rotate(0,474,376)"/><circle cx="474" cy="474" r="7" transform="rotate(0,474,474)"/></clipPath><clipPath id="clip-path-corners-square-color-0-0"><path clip-rule="evenodd" d="M 19 54v 28a 35 35, 0, 0, 0, 35 35h 28a 35 35, 0, 0, 0, 35 -35v -28a 35 35, 0, 0, 0, -35 -35h -28a 35 35, 0, 0, 0, -35 35M 54 33h 28a 21 21, 0, 0, 1, 21 21v 28a 21 21, 0, 0, 1, -21 21h -28a 21 21, 0, 0, 1, -21 -21v -28a 21 21, 0, 0, 1, 21 -21" transform="rotate(0,68,68)"/></clipPath><clipPath id="clip-path-corners-dot-color-0-0"><circle cx="68" cy="68" r="21" transform="rotate(0,68,68)"/></clipPath><clipPath id="clip-path-corners-square-color-1-0"><path clip-rule="evenodd" d="M 383 54v 28a 35 35, 0, 0, 0, 35 35h 28a 35 35, 0, 0, 0, 35 -35v -28a 35 35, 0, 0, 0, -35 -35h -28a 35 35, 0, 0, 0, -35 35M 418 33h 28a 21 21, 0, 0, 1, 21 21v 28a 21 21, 0, 0, 1, -21 21h -28a 21 21, 0, 0, 1, -21 -21v -28a 21 21, 0, 0, 1, 21 -21" transform="rotate(90,432,68)"/></clipPath><clipPath id="clip-path-corners-dot-color-1-0"><circle cx="432" cy="68" r="21" transform="rotate(90,432,68)"/></clipPath><clipPath id="clip-path-corners-square-color-0-1"><path clip-rule="evenodd" d="M 19 418v 28a 35 35, 0, 0, 0, 35 35h 28a 35 35, 0, 0, 0, 35 -35v -28a 35 35, 0, 0, 0, -35 -35h -28a 35 35, 0, 0, 0, -35 35M 54 397h 28a 21 21, 0, 0, 1, 21 21v 28a 21 21, 0, 0, 1, -21 21h -28a 21 21, 0, 0, 1, -21 -21v -28a 21 21, 0, 0, 1, 21 -21" transform="rotate(-90,68,432)"/></clipPath><clipPath id="clip-path-corners-dot-color-0-1"><circle cx="68" cy="432" r="21" transform="rotate(-90,68,432)"/></clipPath></defs><rect x="0" y="0" height="500" width="500" clip-path="url('#clip-path-background-color')" fill="#fff"/><rect x="0" y="0" height="500" width="500" clip-path="url('#clip-path-dot-color')" fill="#18417E"/><rect x="19" y="19" height="98" width="98" clip-path="url('#clip-path-corners-square-color-0-0')" fill="#18417E"/><rect x="47" y="47" height="42" width="42" clip-path="url('#clip-path-corners-dot-color-0-0')" fill="#18417E"/><rect x="383" y="19" height="98" width="98" clip-path="url('#clip-path-corners-square-color-1-0')" fill="#18417E"/><rect x="411" y="47" height="42" width="42" clip-path="url('#clip-path-corners-dot-color-1-0')" fill="#18417E"/><rect x="19" y="383" height="98" width="98" clip-path="url('#clip-path-corners-square-color-0-1')" fill="#18417E"/><rect x="47" y="411" height="42" width="42" clip-path="url('#clip-path-corners-dot-color-0-1')" fill="#18417E"/></svg>